<svg xmlns="http://www.w3.org/2000/svg" aria-hidden="true" style="position:absolute;width:0;height:0;overflow:hidden">
  <defs>
    <symbol id="icon-close" viewBox="0 0 32 32">
      <path fill="none" stroke="#fbfbfb" stroke-linecap="round" stroke-linejoin="round" stroke-width="2.4"
        d="M24 8 8 24M8 8l16 16" style="stroke:var(--color1, #fbfbfb)" />
    </symbol>
    <symbol id="icon-facebook" viewBox="0 0 33 32">
      <path stroke-width=".889"
        d="M9.333.444h14.222a8.444 8.444 0 0 1 8.444 8.444V23.11a8.444 8.444 0 0 1-8.444 8.444H9.333A8.444 8.444 0 0 1 .889 23.11V8.888A8.444 8.444 0 0 1 9.333.444z" />
      <path
        d="M18.4 9.689h.533v2h-.667c-.267 0-.533 0-.667.133-.133.133-.133.267-.133.578v.711h1.467V14.8h-1.467v7.333h-2.267v-7.378h-1.2v-1.689h1.2v-.578c0-.978.133-1.689.4-2 .4-.578 1.2-.844 2.4-.844.133.044.267.044.4.044z" />
    </symbol>
    <symbol id="icon-foto" viewBox="0 0 33 32">
      <path fill="none" stroke="#0c0c0c" stroke-width=".889"
        d="M9.333.444h14.222a8.444 8.444 0 0 1 8.444 8.444V23.11a8.444 8.444 0 0 1-8.444 8.444H9.333A8.444 8.444 0 0 1 .889 23.11V8.888A8.444 8.444 0 0 1 9.333.444z"
        style="stroke:var(--color2, #0c0c0c)" />
      <path
        d="M23.51 13.087a5.137 5.137 0 0 0-.331-1.747A3.639 3.639 0 0 0 21.1 9.264a5.22 5.22 0 0 0-1.727-.331c-.76-.034-1.001-.043-2.929-.043s-2.176 0-2.93.043a5.245 5.245 0 0 0-1.726.331 3.633 3.633 0 0 0-2.079 2.076 5.152 5.152 0 0 0-.331 1.723c-.034.759-.044 1-.044 2.925s0 2.171.044 2.925c.012.59.123 1.172.331 1.724a3.636 3.636 0 0 0 2.08 2.075c.55.214 1.133.336 1.726.355.761.034 1.001.044 2.93.044s2.176 0 2.93-.044a5.23 5.23 0 0 0 1.727-.33 3.642 3.642 0 0 0 2.079-2.076 5.183 5.183 0 0 0 .331-1.724c.034-.759.044-.999.044-2.925-.002-1.925-.002-2.17-.046-2.924zm-7.071 6.542c-2.017 0-3.651-1.631-3.651-3.645s1.634-3.645 3.651-3.645c2.015 0 3.651 1.631 3.651 3.645s-1.636 3.645-3.651 3.645zm3.796-6.576a.849.849 0 1 1 0-1.7.85.85 0 1 1 0 1.7z" />
      <path d="M16.44 18.209a2.224 2.224 0 1 0 0-4.447 2.224 2.224 0 0 0 0 4.447z" />
    </symbol>
    <symbol id="icon-play" viewBox="0 0 33 32">
      <path stroke-width=".889"
        d="M9.333.444h14.222a8.444 8.444 0 0 1 8.444 8.444V23.11a8.444 8.444 0 0 1-8.444 8.444H9.333A8.444 8.444 0 0 1 .889 23.11V8.888A8.444 8.444 0 0 1 9.333.444z" />
      <path
        d="M21.022 10.444c-.756-.044-2.311-.089-4.667-.089h-.311c-2.267 0-3.778.044-4.533.133-1.022.089-1.733.356-2.133.711-.356.311-.622.889-.711 1.644-.044.489-.089 1.511-.089 3.067v.222c0 1.467.044 2.489.133 2.978.133.711.356 1.244.8 1.556.444.356 1.2.578 2.267.667.756.044 2.311.089 4.667.089h.311c2.267 0 3.778-.044 4.533-.133 1.022-.089 1.733-.356 2.133-.711.356-.311.622-.889.711-1.644.044-.489.089-1.511.089-3.067v-.222c0-1.467-.044-2.489-.133-2.978-.133-.711-.356-1.244-.8-1.556-.444-.356-1.2-.578-2.267-.667zm-1.733 5.467L14.4 18.844v-5.867l4.889 2.933z" />
    </symbol>
    <symbol id="icon-burger" viewBox="0 0 32 32">
      <path stroke-linecap="round" stroke-linejoin="round" stroke-width="2.4" d="M4 11.333h24M4 20.667h24" />
    </symbol>
    <symbol id="icons-facebook" viewBox="0 0 34 32">
      <path
        d="M20.32 4.64h.96v3.6h-1.2c-.48 0-.96 0-1.2.24s-.24.48-.24 1.04v1.28h2.64v3.04h-2.64v13.2h-4.08V13.76H12.4v-3.04h2.16V9.68c0-1.76.24-3.04.72-3.6.72-1.04 2.16-1.52 4.32-1.52.24.08.48.08.72.08z" />
    </symbol>
    <symbol id="icons-linkedin" viewBox="0 0 34 32">
      <path
        d="M29.518 10.756a9.264 9.264 0 0 0-.596-3.145 6.547 6.547 0 0 0-3.743-3.737 9.42 9.42 0 0 0-3.108-.596c-1.368-.061-1.801-.078-5.273-.078s-3.916 0-5.274.078a9.418 9.418 0 0 0-3.106.596 6.541 6.541 0 0 0-3.743 3.737 9.288 9.288 0 0 0-.596 3.101c-.061 1.367-.08 1.8-.08 5.265s0 3.909.08 5.265a9.335 9.335 0 0 0 .596 3.104 6.55 6.55 0 0 0 3.744 3.736c.989.386 2.04.604 3.106.639 1.369.061 1.803.08 5.274.08s3.916 0 5.274-.08a9.362 9.362 0 0 0 3.108-.595 6.555 6.555 0 0 0 3.743-3.737 9.35 9.35 0 0 0 .596-3.104c.061-1.365.08-1.798.08-5.265-.003-3.466-.003-3.906-.082-5.264zM16.79 22.531c-3.631 0-6.572-2.936-6.572-6.561s2.941-6.561 6.572-6.561c3.628 0 6.572 2.936 6.572 6.561s-2.944 6.561-6.572 6.561zm6.834-11.835a1.53 1.53 0 1 1 0-3.06 1.53 1.53 0 1 1 0 3.06z" />
      <path d="M16.792 19.976a4.004 4.004 0 1 0 0-8.009 4.004 4.004 0 0 0 0 8.009z" />
    </symbol>
    <symbol id="icons-youtube" viewBox="0 0 34 32">
      <path
        d="M25.04 6c-1.36-.08-4.16-.16-8.4-.16h-.56c-4.08 0-6.8.08-8.16.24-1.84.16-3.12.64-3.84 1.28-.64.56-1.12 1.6-1.28 2.96-.08.88-.16 2.72-.16 5.52v.4c0 2.64.08 4.48.24 5.36.24 1.28.64 2.24 1.44 2.8.8.64 2.16 1.04 4.08 1.2 1.36.08 4.16.16 8.4.16h.56c4.08 0 6.8-.08 8.16-.24 1.84-.16 3.12-.64 3.84-1.28.64-.56 1.12-1.6 1.28-2.96.08-.88.16-2.72.16-5.52v-.4c0-2.64-.08-4.48-.24-5.36-.24-1.28-.64-2.24-1.44-2.8-.8-.64-2.16-1.04-4.08-1.2zm-3.12 9.84-8.8 5.28V10.56l8.8 5.28z" />
    </symbol>
    <symbol id="icon-burger" viewBox="0 0 64 32">
      <path stroke-linecap="round" stroke-linejoin="round" stroke-width="5.714"
        d="M2.857 4.667h58.286M2.857 27.333h58.286" />
    </symbol>
    <symbol id="icon-vectora" viewBox="0 0 32 32">
      <path stroke-linecap="round" stroke-linejoin="round" stroke-width="4" d="m2.4 2.4 27.2 27.2" />
    </symbol>
    <symbol id="icon-vectorb" viewBox="0 0 32 32">
      <path stroke-linecap="round" stroke-linejoin="round" stroke-width="4" d="M29.6 2.4 2.4 29.6" />
    </symbol>
  </defs>
</svg>