<svg xmlns="http://www.w3.org/2000/svg" aria-hidden="true" style="position:absolute;width:0;height:0;overflow:hidden">
  <defs>
    <symbol id="icon-close" viewBox="0 0 32 32">
      <path fill="none" stroke="#fbfbfb" stroke-linecap="round" stroke-linejoin="round" stroke-width="2.4" d="M24 8 8 24M8 8l16 16" style="stroke:var(--color1, #fbfbfb)"/>
    </symbol>
    <symbol id="icon-facebook" viewBox="0 0 33 32">
      <path stroke-width=".889" d="M9.333.444h14.222a8.444 8.444 0 0 1 8.444 8.444V23.11a8.444 8.444 0 0 1-8.444 8.444H9.333A8.444 8.444 0 0 1 .889 23.11V8.888A8.444 8.444 0 0 1 9.333.444z"/>
      <path d="M18.4 9.689h.533v2h-.667c-.267 0-.533 0-.667.133-.133.133-.133.267-.133.578v.711h1.467V14.8h-1.467v7.333h-2.267v-7.378h-1.2v-1.689h1.2v-.578c0-.978.133-1.689.4-2 .4-.578 1.2-.844 2.4-.844.133.044.267.044.4.044z"/>
    </symbol>
    <symbol id="icon-foto" viewBox="0 0 33 32">
      <path fill="none" stroke="#0c0c0c" stroke-width=".889" d="M9.333.444h14.222a8.444 8.444 0 0 1 8.444 8.444V23.11a8.444 8.444 0 0 1-8.444 8.444H9.333A8.444 8.444 0 0 1 .889 23.11V8.888A8.444 8.444 0 0 1 9.333.444z" style="stroke:var(--color2, #0c0c0c)"/>
      <path d="M23.51 13.087a5.137 5.137 0 0 0-.331-1.747A3.639 3.639 0 0 0 21.1 9.264a5.22 5.22 0 0 0-1.727-.331c-.76-.034-1.001-.043-2.929-.043s-2.176 0-2.93.043a5.245 5.245 0 0 0-1.726.331 3.633 3.633 0 0 0-2.079 2.076 5.152 5.152 0 0 0-.331 1.723c-.034.759-.044 1-.044 2.925s0 2.171.044 2.925c.012.59.123 1.172.331 1.724a3.636 3.636 0 0 0 2.08 2.075c.55.214 1.133.336 1.726.355.761.034 1.001.044 2.93.044s2.176 0 2.93-.044a5.23 5.23 0 0 0 1.727-.33 3.642 3.642 0 0 0 2.079-2.076 5.183 5.183 0 0 0 .331-1.724c.034-.759.044-.999.044-2.925-.002-1.925-.002-2.17-.046-2.924zm-7.071 6.542c-2.017 0-3.651-1.631-3.651-3.645s1.634-3.645 3.651-3.645c2.015 0 3.651 1.631 3.651 3.645s-1.636 3.645-3.651 3.645zm3.796-6.576a.849.849 0 1 1 0-1.7.85.85 0 1 1 0 1.7z"/>
      <path d="M16.44 18.209a2.224 2.224 0 1 0 0-4.447 2.224 2.224 0 0 0 0 4.447z"/>
    </symbol>
    <symbol id="icon-play" viewBox="0 0 33 32">
      <path stroke-width=".889" d="M9.333.444h14.222a8.444 8.444 0 0 1 8.444 8.444V23.11a8.444 8.444 0 0 1-8.444 8.444H9.333A8.444 8.444 0 0 1 .889 23.11V8.888A8.444 8.444 0 0 1 9.333.444z"/>
      <path d="M21.022 10.444c-.756-.044-2.311-.089-4.667-.089h-.311c-2.267 0-3.778.044-4.533.133-1.022.089-1.733.356-2.133.711-.356.311-.622.889-.711 1.644-.044.489-.089 1.511-.089 3.067v.222c0 1.467.044 2.489.133 2.978.133.711.356 1.244.8 1.556.444.356 1.2.578 2.267.667.756.044 2.311.089 4.667.089h.311c2.267 0 3.778-.044 4.533-.133 1.022-.089 1.733-.356 2.133-.711.356-.311.622-.889.711-1.644.044-.489.089-1.511.089-3.067v-.222c0-1.467-.044-2.489-.133-2.978-.133-.711-.356-1.244-.8-1.556-.444-.356-1.2-.578-2.267-.667zm-1.733 5.467L14.4 18.844v-5.867l4.889 2.933z"/>
    </symbol>
    <symbol id="icon-burger" viewBox="0 0 32 32">
      <path stroke-linecap="round" stroke-linejoin="round" stroke-width="2.4" d="M4 11.333h24M4 20.667h24"/>
    </symbol>
  </defs>
</svg>
